<?xml version="1.0" standalone="no"?>
<!DOCTYPE svg PUBLIC "-//W3C//DTD SVG 20010904//EN"
 "http://www.w3.org/TR/2001/REC-SVG-20010904/DTD/svg10.dtd">
<svg version="1.0" xmlns="http://www.w3.org/2000/svg"
 width="2048.000000pt" height="2048.000000pt" viewBox="0 0 2048.000000 2048.000000"
 preserveAspectRatio="xMidYMid meet">

<g transform="translate(0.000000,2048.000000) scale(0.100000,-0.100000)"
fill="#000000" stroke="none">
<path d="M12580 18575 c-503 -61 -944 -218 -1320 -470 -177 -119 -276 -200
-431 -355 -335 -334 -579 -726 -794 -1275 -103 -263 -251 -737 -336 -1074 -23
-89 -26 -95 -64 -119 -185 -115 -438 -296 -630 -451 -753 -606 -1357 -1395
-1790 -2340 -131 -286 -243 -594 -280 -769 -39 -187 5 -302 122 -318 21 -3 44
-8 51 -10 13 -4 -137 -231 -537 -814 -305 -444 -291 -420 -292 -531 -1 -74 6
-109 32 -161 40 -79 127 -151 202 -168 21 -4 31 -12 28 -21 -2 -8 -10 -36 -18
-64 -22 -77 -11 -185 26 -257 l29 -57 -157 -208 c-180 -239 -318 -418 -372
-483 -106 -128 -132 -285 -71 -424 27 -60 86 -123 144 -152 26 -13 48 -27 48
-30 0 -3 -64 -81 -143 -172 -525 -613 -504 -585 -527 -696 -30 -147 42 -306
170 -371 96 -49 191 -54 309 -18 84 26 595 371 1797 1211 127 89 234 162 238
162 3 0 7 -1414 8 -3142 l3 -3143 23 -47 c65 -130 203 -197 336 -163 34 9 79
28 100 43 46 32 100 111 115 167 11 43 40 428 42 563 1 45 5 85 10 88 4 2 31
-3 59 -12 143 -47 309 33 376 180 72 159 131 767 150 1559 l7 278 31 -30 c50
-48 120 -74 201 -74 95 0 160 29 224 99 88 96 81 -59 81 1761 l0 1613 84 0 84
0 17 53 c113 346 469 571 905 570 191 -1 309 -27 475 -108 255 -124 421 -346
469 -627 l7 -38 169 0 170 0 -7 48 c-3 26 -16 89 -29 140 -76 306 -314 600
-614 760 -77 42 -245 104 -314 116 l-38 7 28 30 c90 95 282 201 432 239 516
130 1042 -123 1193 -574 14 -45 30 -102 33 -128 l7 -48 165 0 164 0 0 24 c0
14 -7 58 -15 98 -88 424 -402 770 -826 912 -177 59 -430 89 -579 68 -41 -6
-75 -10 -76 -9 -1 1 11 58 26 126 16 68 47 232 70 364 l41 240 112 121 c135
145 238 272 367 453 140 196 212 314 320 528 309 613 482 1280 530 2045 20
324 9 660 -36 1160 -10 113 -18 333 -21 621 l-5 446 -87 6 c-101 6 -232 47
-317 98 -129 77 -265 236 -314 366 -31 81 -60 226 -60 299 -1 386 288 701 712
778 91 16 215 31 350 42 l87 6 30 -59 30 -60 -53 5 c-70 6 -112 -15 -177 -86
-83 -91 -219 -335 -299 -537 -86 -218 -112 -425 -71 -585 25 -101 72 -182 132
-229 l44 -34 140 6 c80 4 182 15 237 27 273 57 530 195 725 386 69 68 99 91
104 82 17 -26 59 -227 70 -328 17 -165 -4 -391 -51 -550 -11 -35 -17 -66 -15
-68 2 -2 31 17 63 42 235 180 425 437 542 730 140 354 144 830 8 1215 -85 241
-278 539 -451 696 -71 64 -75 70 -79 117 -3 31 -22 84 -53 146 -145 291 -524
488 -1065 552 -117 14 -562 11 -690 -5z m93 -583 c69 -35 134 -102 170 -180
29 -62 32 -75 32 -168 0 -99 -1 -104 -40 -180 -71 -139 -176 -200 -334 -192
-137 7 -218 59 -336 218 -36 48 -81 100 -100 114 l-34 26 44 58 c25 31 69 90
98 131 63 90 125 144 203 177 51 21 72 24 154 22 76 -2 105 -8 143 -26z
m-1686 -8574 c49 -99 86 -144 141 -169 l50 -23 -67 -47 c-36 -25 -88 -66 -115
-90 -58 -51 -158 -175 -186 -229 -19 -37 -19 -37 -96 -43 -43 -4 -79 -5 -81
-3 -3 2 14 60 36 129 35 110 72 259 98 395 8 40 12 45 93 91 47 27 87 49 90
50 3 1 20 -27 37 -61z m-1087 -556 c34 -64 77 -138 95 -164 l35 -47 66 -3 67
-3 -83 -54 c-81 -52 -234 -194 -278 -256 l-21 -30 -1 322 0 322 28 15 c15 8
28 15 29 16 1 0 29 -53 63 -118z"/>
<path d="M12455 17836 c-71 -26 -135 -119 -135 -196 0 -112 103 -210 220 -210
70 1 155 59 179 123 15 40 14 131 -3 170 -15 37 -59 83 -97 102 -42 22 -119
27 -164 11z"/>
</g>
</svg>
